<svg aria-hidden="true" style="position: absolute; width: 0; height: 0; overflow: hidden;" version="1.1" xmlns="http://www.w3.org/2000/svg" xmlns:xlink="http://www.w3.org/1999/xlink">
<defs>
<symbol id="icon-logo" viewBox="0 0 32 32">
<path d="M0 3v26h32v-26h-32zM14.25 5.5h3.5v2h-3.5v-2zM5.75 26.5h-3.5v-2h3.5v2zM5.75 7.5h-3.5v-2h3.5v2zM11.75 26.5h-3.5v-2h3.5v2zM11.75 7.5h-3.5v-2h3.5v2zM17.75 26.5h-3.5v-2h3.5v2zM19.449 16.116l-5.76 3.439c-0.042 0.024-0.094 0.025-0.136 0.001s-0.068-0.068-0.068-0.118v-6.875c0-0.049 0.026-0.094 0.068-0.117 0.019-0.011 0.042-0.018 0.067-0.018s0.049 0.007 0.069 0.019l-0.001-0 5.76 3.438c0.041 0.023 0.065 0.068 0.065 0.115 0 0 0 0 0 0.001 0 0.049-0.026 0.091-0.065 0.115l-0.001 0zM23.75 26.5h-3.5v-2h3.5v2zM23.75 7.5h-3.5v-2h3.5v2zM29.75 26.5h-3.5v-2h3.5v2zM29.75 7.5h-3.5v-2h3.5v2z"></path>
</symbol>
</defs>
</svg>
